# MagicaVoxel @ Ephtracy

# group
o 

# material
mtllib part2.mtl
usemtl palette

# normals
vn -1 0 0
vn 1 0 0
vn 0 0 1
vn 0 0 -1
vn 0 -1 0
vn 0 1 0

# texcoords
vt 0.0957031 0.5
vt 0.220703 0.5
vt 0.228516 0.5
vt 0.244141 0.5

# verts
v -2 1.5 0.3
v -2 1.5 -0.4
v -2 2.2 0.3
v -2 2.2 -0.4
v -0.9 4.5 2.38419e-007
v -0.9 4.5 -0.0999998
v -0.9 4.6 2.38419e-007
v -0.9 4.6 -0.0999998
v -0.3 1.5 -0.4
v -0.3 1.5 -2.1
v -0.3 2.2 0.3
v -0.3 2.2 0.2
v -0.3 2.2 -0.3
v -0.3 2.2 -0.4
v -0.3 2.2 -2.1
v -0.3 3.5 0.2
v -0.3 3.5 0.1
v -0.3 3.5 -0.2
v -0.3 3.5 -0.3
v -0.3 3.7 0.1
v -0.3 3.7 -0.2
v -0.3 4.3 0.3
v -0.3 4.3 -0.4
v -0.2 4.3 0.2
v -0.2 4.3 -0.3
v -0.2 4.5 2.38419e-007
v -0.2 4.5 -0.0999998
v -0.2 4.6 2.38419e-007
v -0.2 4.6 -0.0999998
v -0.2 4.8 0.2
v -0.2 4.8 -0.3
v 0 4.5 0.9
v 0 4.5 0.7
v 0 4.5 0.2
v 0 4.5 -0.3
v 0 4.5 -0.8
v 0 4.5 -1
v 0 4.6 0.9
v 0 4.6 0.7
v 0 4.6 0.2
v 0 4.6 -0.3
v 0 4.6 -0.8
v 0 4.6 -1
v 0.2 3.5 0.3
v 0.2 3.5 0.2
v 0.2 3.5 -0.2
v 0.2 3.5 -0.4
v 0.2 3.7 0.3
v 0.2 3.7 0.2
v 0.2 3.7 -0.2
v 0.2 3.7 -0.4
v 0.2 4.7 0.1
v 0.2 4.7 -0.2
v 0.2 4.8 0.1
v 0.2 4.8 -0.2
v 0.3 2.2 0.3
v 0.3 2.2 0.2
v 0.3 2.2 -0.3
v 0.3 2.2 -0.4
v 0.3 3.5 0.3
v 0.3 3.5 0.2
v 0.3 3.5 0.1
v 0.3 3.5 -0.3
v 0.3 3.5 -0.4
v 0.3 3.7 0.2
v 0.3 3.7 0.1
v -0.2 2.2 0.3
v -0.2 2.2 0.2
v -0.2 2.2 -0.3
v -0.2 2.2 -0.4
v -0.2 3.5 0.3
v -0.2 3.5 0.2
v -0.2 3.5 0.1
v -0.2 3.5 -0.2
v -0.2 3.5 -0.3
v -0.2 3.5 -0.4
v -0.2 3.7 0.2
v -0.2 3.7 0.1
v -0.2 3.7 -0.2
v -0.2 3.7 -0.3
v -0.1 3.5 0.3
v -0.1 3.5 0.2
v -0.1 3.5 -0.3
v -0.1 3.5 -0.4
v -0.1 3.7 0.3
v -0.1 3.7 0.2
v -0.1 3.7 -0.3
v -0.1 3.7 -0.4
v -0.1 4.7 0.1
v -0.1 4.7 -0.2
v -0.1 4.8 0.1
v -0.1 4.8 -0.2
v 0.0999999 4.5 0.9
v 0.0999999 4.5 0.7
v 0.0999999 4.5 0.2
v 0.0999999 4.5 -0.3
v 0.0999999 4.5 -0.8
v 0.0999999 4.5 -1
v 0.0999999 4.6 0.9
v 0.0999999 4.6 0.7
v 0.0999999 4.6 0.2
v 0.0999999 4.6 -0.3
v 0.0999999 4.6 -0.8
v 0.0999999 4.6 -1
v 0.3 4.3 0.2
v 0.3 4.3 -0.3
v 0.3 4.5 2.38419e-007
v 0.3 4.5 -0.0999998
v 0.3 4.6 2.38419e-007
v 0.3 4.6 -0.0999998
v 0.3 4.8 0.2
v 0.3 4.8 -0.3
v 0.4 1.5 0.3
v 0.4 1.5 -2.1
v 0.4 2.2 0.3
v 0.4 2.2 0.2
v 0.4 2.2 -0.3
v 0.4 2.2 -0.4
v 0.4 2.2 -2.1
v 0.4 3.5 0.2
v 0.4 3.5 0.1
v 0.4 3.5 -0.2
v 0.4 3.5 -0.3
v 0.4 3.7 0.1
v 0.4 3.7 -0.2
v 0.4 4.3 0.3
v 0.4 4.3 -0.4
v 1 4.5 2.38419e-007
v 1 4.5 -0.0999998
v 1 4.6 2.38419e-007
v 1 4.6 -0.0999998
v 0 4.5 0.9
v 0 4.6 0.9
v 0.0999999 4.5 0.9
v 0.0999999 4.6 0.9
v -2 1.5 0.3
v -2 2.2 0.3
v -0.3 2.2 0.3
v -0.3 4.3 0.3
v -0.2 2.2 0.3
v -0.2 3.5 0.3
v -0.1 3.5 0.3
v -0.1 3.7 0.3
v 0.2 3.5 0.3
v 0.2 3.7 0.3
v 0.3 2.2 0.3
v 0.3 3.5 0.3
v 0.4 1.5 0.3
v 0.4 2.2 0.3
v 0.4 4.3 0.3
v -0.2 4.3 0.2
v -0.2 4.8 0.2
v 0 4.5 0.2
v 0 4.6 0.2
v 0.0999999 4.5 0.2
v 0.0999999 4.6 0.2
v 0.3 4.3 0.2
v 0.3 4.8 0.2
v -0.9 4.5 2.38419e-007
v -0.9 4.6 2.38419e-007
v -0.7 4.5 2.38419e-007
v -0.7 4.6 2.38419e-007
v -0.2 4.5 2.38419e-007
v -0.2 4.6 2.38419e-007
v 0.3 4.5 2.38419e-007
v 0.3 4.6 2.38419e-007
v 0.8 4.5 2.38419e-007
v 0.8 4.6 2.38419e-007
v 1 4.5 2.38419e-007
v 1 4.6 2.38419e-007
v -0.3 3.5 -0.2
v -0.3 3.7 -0.2
v -0.2 3.5 -0.2
v -0.2 3.7 -0.2
v -0.1 4.7 -0.2
v -0.1 4.8 -0.2
v 0.2 3.5 -0.2
v 0.2 3.7 -0.2
v 0.2 4.7 -0.2
v 0.2 4.8 -0.2
v 0.4 3.5 -0.2
v 0.4 3.7 -0.2
v -0.3 2.2 -0.3
v -0.3 3.5 -0.3
v -0.2 2.2 -0.3
v -0.2 3.5 -0.3
v -0.2 3.7 -0.3
v -0.1 3.5 -0.3
v -0.1 3.7 -0.3
v 0.3 2.2 -0.3
v 0.3 3.5 -0.3
v 0.4 2.2 -0.3
v 0.4 3.5 -0.3
v -0.3 2.2 0.2
v -0.3 3.5 0.2
v -0.2 2.2 0.2
v -0.2 3.5 0.2
v -0.2 3.7 0.2
v -0.1 3.5 0.2
v -0.1 3.7 0.2
v 0.2 3.5 0.2
v 0.2 3.7 0.2
v 0.3 2.2 0.2
v 0.3 3.5 0.2
v 0.3 3.7 0.2
v 0.4 2.2 0.2
v 0.4 3.5 0.2
v -0.3 3.5 0.1
v -0.3 3.7 0.1
v -0.2 3.5 0.1
v -0.2 3.7 0.1
v -0.1 4.7 0.1
v -0.1 4.8 0.1
v 0.2 4.7 0.1
v 0.2 4.8 0.1
v 0.3 3.5 0.1
v 0.3 3.7 0.1
v 0.4 3.5 0.1
v 0.4 3.7 0.1
v -0.9 4.5 -0.0999998
v -0.9 4.6 -0.0999998
v -0.7 4.5 -0.0999998
v -0.7 4.6 -0.0999998
v -0.2 4.5 -0.0999998
v -0.2 4.6 -0.0999998
v 0.3 4.5 -0.0999998
v 0.3 4.6 -0.0999998
v 0.8 4.5 -0.0999998
v 0.8 4.6 -0.0999998
v 1 4.5 -0.0999998
v 1 4.6 -0.0999998
v -0.2 4.3 -0.3
v -0.2 4.8 -0.3
v 0 4.5 -0.3
v 0 4.6 -0.3
v 0.0999999 4.5 -0.3
v 0.0999999 4.6 -0.3
v 0.3 4.3 -0.3
v 0.3 4.8 -0.3
v -2 1.5 -0.4
v -2 2.2 -0.4
v -0.3 1.5 -0.4
v -0.3 2.2 -0.4
v -0.3 4.3 -0.4
v -0.2 2.2 -0.4
v -0.2 3.5 -0.4
v -0.1 3.5 -0.4
v -0.1 3.7 -0.4
v 0.2 3.5 -0.4
v 0.2 3.7 -0.4
v 0.3 2.2 -0.4
v 0.3 3.5 -0.4
v 0.4 2.2 -0.4
v 0.4 4.3 -0.4
v 0 4.5 -1
v 0 4.6 -1
v 0.0999999 4.5 -1
v 0.0999999 4.6 -1
v -0.3 1.5 -2.1
v -0.3 2.2 -2.1
v 0.4 1.5 -2.1
v 0.4 2.2 -2.1
v -2 1.5 0.3
v 0.4 1.5 0.3
v -2 1.5 -0.4
v -0.3 1.5 -0.4
v -0.3 1.5 -2.1
v 0.4 1.5 -2.1
v -0.2 3.5 0.3
v -0.1 3.5 0.3
v 0.2 3.5 0.3
v 0.3 3.5 0.3
v -0.3 3.5 0.2
v -0.2 3.5 0.2
v -0.1 3.5 0.2
v 0.2 3.5 0.2
v 0.3 3.5 0.2
v 0.4 3.5 0.2
v -0.3 3.5 0.1
v -0.2 3.5 0.1
v 0.3 3.5 0.1
v 0.4 3.5 0.1
v -0.3 3.5 -0.2
v -0.2 3.5 -0.2
v 0.2 3.5 -0.2
v 0.4 3.5 -0.2
v -0.3 3.5 -0.3
v -0.2 3.5 -0.3
v -0.1 3.5 -0.3
v 0.3 3.5 -0.3
v 0.4 3.5 -0.3
v -0.2 3.5 -0.4
v -0.1 3.5 -0.4
v 0.2 3.5 -0.4
v 0.3 3.5 -0.4
v -0.1 3.7 0.3
v 0.2 3.7 0.3
v -0.2 3.7 0.2
v -0.1 3.7 0.2
v 0.2 3.7 0.2
v 0.3 3.7 0.2
v -0.3 3.7 0.1
v -0.2 3.7 0.1
v 0.3 3.7 0.1
v 0.4 3.7 0.1
v -0.3 3.7 -0.2
v -0.2 3.7 -0.2
v 0.2 3.7 -0.2
v 0.4 3.7 -0.2
v -0.2 3.7 -0.3
v -0.1 3.7 -0.3
v -0.1 3.7 -0.4
v 0.2 3.7 -0.4
v 0 4.5 0.9
v 0.0999999 4.5 0.9
v 0 4.5 0.7
v 0.0999999 4.5 0.7
v 0 4.5 0.2
v 0.0999999 4.5 0.2
v -0.9 4.5 2.38419e-007
v -0.7 4.5 2.38419e-007
v -0.2 4.5 2.38419e-007
v 0.3 4.5 2.38419e-007
v 0.8 4.5 2.38419e-007
v 1 4.5 2.38419e-007
v -0.9 4.5 -0.0999998
v -0.7 4.5 -0.0999998
v -0.2 4.5 -0.0999998
v 0.3 4.5 -0.0999998
v 0.8 4.5 -0.0999998
v 1 4.5 -0.0999998
v 0 4.5 -0.3
v 0.0999999 4.5 -0.3
v 0 4.5 -0.8
v 0.0999999 4.5 -0.8
v 0 4.5 -1
v 0.0999999 4.5 -1
v -2 2.2 0.3
v -0.3 2.2 0.3
v -0.2 2.2 0.3
v 0.3 2.2 0.3
v -0.3 2.2 0.2
v -0.2 2.2 0.2
v 0.3 2.2 0.2
v 0.4 2.2 0.2
v -0.3 2.2 -0.3
v -0.2 2.2 -0.3
v 0.3 2.2 -0.3
v 0.4 2.2 -0.3
v -2 2.2 -0.4
v -0.3 2.2 -0.4
v -0.2 2.2 -0.4
v 0.3 2.2 -0.4
v 0.4 2.2 -0.4
v -0.3 2.2 -2.1
v 0.4 2.2 -2.1
v -0.3 4.3 0.3
v 0.4 4.3 0.3
v -0.2 4.3 0.2
v 0.3 4.3 0.2
v -0.2 4.3 -0.3
v 0.3 4.3 -0.3
v -0.3 4.3 -0.4
v 0.4 4.3 -0.4
v 0 4.6 0.9
v 0.0999999 4.6 0.9
v 0 4.6 0.7
v 0.0999999 4.6 0.7
v 0 4.6 0.2
v 0.0999999 4.6 0.2
v -0.9 4.6 2.38419e-007
v -0.7 4.6 2.38419e-007
v -0.2 4.6 2.38419e-007
v 0.3 4.6 2.38419e-007
v 0.8 4.6 2.38419e-007
v 1 4.6 2.38419e-007
v -0.9 4.6 -0.0999998
v -0.7 4.6 -0.0999998
v -0.2 4.6 -0.0999998
v 0.3 4.6 -0.0999998
v 0.8 4.6 -0.0999998
v 1 4.6 -0.0999998
v 0 4.6 -0.3
v 0.0999999 4.6 -0.3
v 0 4.6 -0.8
v 0.0999999 4.6 -0.8
v 0 4.6 -1
v 0.0999999 4.6 -1
v -0.1 4.7 0.1
v 0.2 4.7 0.1
v -0.1 4.7 -0.2
v 0.2 4.7 -0.2
v -0.2 4.8 0.2
v 0.3 4.8 0.2
v -0.1 4.8 0.1
v 0.2 4.8 0.1
v -0.1 4.8 -0.2
v 0.2 4.8 -0.2
v -0.2 4.8 -0.3
v 0.3 4.8 -0.3

# faces
f 3/2/1 2/2/1 1/2/1
f 4/2/1 2/2/1 3/2/1
f 7/4/1 6/4/1 5/4/1
f 8/4/1 6/4/1 7/4/1
f 14/2/1 10/2/1 9/2/1
f 15/2/1 10/2/1 14/2/1
f 16/3/1 12/3/1 11/3/1
f 19/3/1 14/3/1 13/3/1
f 20/3/1 17/3/1 16/3/1
f 21/3/1 19/3/1 18/3/1
f 22/3/1 20/3/1 16/3/1
f 22/3/1 21/3/1 20/3/1
f 22/3/1 16/3/1 11/3/1
f 23/3/1 19/3/1 21/3/1
f 23/3/1 21/3/1 22/3/1
f 23/3/1 14/3/1 19/3/1
f 26/3/1 25/3/1 24/3/1
f 27/3/1 25/3/1 26/3/1
f 28/3/1 26/3/1 24/3/1
f 29/3/1 25/3/1 27/3/1
f 30/3/1 28/3/1 24/3/1
f 30/3/1 29/3/1 28/3/1
f 31/3/1 25/3/1 29/3/1
f 31/3/1 29/3/1 30/3/1
f 38/4/1 33/4/1 32/4/1
f 39/1/1 34/1/1 33/1/1
f 39/4/1 33/4/1 38/4/1
f 40/1/1 34/1/1 39/1/1
f 41/1/1 36/1/1 35/1/1
f 42/4/1 37/4/1 36/4/1
f 42/1/1 36/1/1 41/1/1
f 43/4/1 37/4/1 42/4/1
f 48/3/1 45/3/1 44/3/1
f 49/3/1 45/3/1 48/3/1
f 50/3/1 47/3/1 46/3/1
f 51/3/1 47/3/1 50/3/1
f 54/3/1 53/3/1 52/3/1
f 55/3/1 53/3/1 54/3/1
f 60/3/1 57/3/1 56/3/1
f 61/3/1 57/3/1 60/3/1
f 63/3/1 59/3/1 58/3/1
f 64/3/1 59/3/1 63/3/1
f 65/3/1 62/3/1 61/3/1
f 66/3/1 62/3/1 65/3/1
f 67/3/2 68/3/2 71/3/2
f 71/3/2 68/3/2 72/3/2
f 69/3/2 70/3/2 75/3/2
f 75/3/2 70/3/2 76/3/2
f 72/3/2 73/3/2 77/3/2
f 77/3/2 73/3/2 78/3/2
f 74/3/2 75/3/2 79/3/2
f 79/3/2 75/3/2 80/3/2
f 81/3/2 82/3/2 85/3/2
f 85/3/2 82/3/2 86/3/2
f 83/3/2 84/3/2 87/3/2
f 87/3/2 84/3/2 88/3/2
f 89/3/2 90/3/2 91/3/2
f 91/3/2 90/3/2 92/3/2
f 93/4/2 94/4/2 99/4/2
f 94/1/2 95/1/2 100/1/2
f 99/4/2 94/4/2 100/4/2
f 100/1/2 95/1/2 101/1/2
f 96/1/2 97/1/2 102/1/2
f 97/4/2 98/4/2 103/4/2
f 102/1/2 97/1/2 103/1/2
f 103/4/2 98/4/2 104/4/2
f 105/3/2 106/3/2 107/3/2
f 107/3/2 106/3/2 108/3/2
f 105/3/2 107/3/2 109/3/2
f 108/3/2 106/3/2 110/3/2
f 105/3/2 109/3/2 111/3/2
f 109/3/2 110/3/2 111/3/2
f 110/3/2 106/3/2 112/3/2
f 111/3/2 110/3/2 112/3/2
f 113/2/2 114/2/2 115/2/2
f 115/2/2 114/2/2 116/2/2
f 116/2/2 114/2/2 117/2/2
f 117/2/2 114/2/2 118/2/2
f 118/2/2 114/2/2 119/2/2
f 115/3/2 116/3/2 120/3/2
f 117/3/2 118/3/2 123/3/2
f 120/3/2 121/3/2 124/3/2
f 122/3/2 123/3/2 125/3/2
f 120/3/2 124/3/2 126/3/2
f 124/3/2 125/3/2 126/3/2
f 115/3/2 120/3/2 126/3/2
f 125/3/2 123/3/2 127/3/2
f 126/3/2 125/3/2 127/3/2
f 123/3/2 118/3/2 127/3/2
f 128/4/2 129/4/2 130/4/2
f 130/4/2 129/4/2 131/4/2
f 134/4/3 133/4/3 132/4/3
f 135/4/3 133/4/3 134/4/3
f 138/2/3 137/2/3 136/2/3
f 140/2/3 138/2/3 136/2/3
f 140/3/3 139/3/3 138/3/3
f 141/3/3 139/3/3 140/3/3
f 142/3/3 139/3/3 141/3/3
f 143/3/3 139/3/3 142/3/3
f 145/3/3 139/3/3 143/3/3
f 146/2/3 140/2/3 136/2/3
f 147/3/3 145/3/3 144/3/3
f 148/2/3 146/2/3 136/2/3
f 149/3/3 147/3/3 146/3/3
f 149/2/3 146/2/3 148/2/3
f 150/3/3 139/3/3 145/3/3
f 150/3/3 147/3/3 149/3/3
f 150/3/3 145/3/3 147/3/3
f 153/3/3 152/3/3 151/3/3
f 154/3/3 152/3/3 153/3/3
f 155/3/3 153/3/3 151/3/3
f 156/3/3 152/3/3 154/3/3
f 157/3/3 155/3/3 151/3/3
f 157/3/3 156/3/3 155/3/3
f 158/3/3 152/3/3 156/3/3
f 158/3/3 156/3/3 157/3/3
f 161/4/3 160/4/3 159/4/3
f 162/4/3 160/4/3 161/4/3
f 163/1/3 162/1/3 161/1/3
f 164/1/3 162/1/3 163/1/3
f 167/1/3 166/1/3 165/1/3
f 168/1/3 166/1/3 167/1/3
f 169/4/3 168/4/3 167/4/3
f 170/4/3 168/4/3 169/4/3
f 173/3/3 172/3/3 171/3/3
f 174/3/3 172/3/3 173/3/3
f 179/3/3 176/3/3 175/3/3
f 180/3/3 176/3/3 179/3/3
f 181/3/3 178/3/3 177/3/3
f 182/3/3 178/3/3 181/3/3
f 185/3/3 184/3/3 183/3/3
f 186/3/3 184/3/3 185/3/3
f 188/3/3 187/3/3 186/3/3
f 189/3/3 187/3/3 188/3/3
f 192/3/3 191/3/3 190/3/3
f 193/3/3 191/3/3 192/3/3
f 194/3/4 195/3/4 196/3/4
f 196/3/4 195/3/4 197/3/4
f 197/3/4 198/3/4 199/3/4
f 199/3/4 198/3/4 200/3/4
f 201/3/4 202/3/4 204/3/4
f 204/3/4 202/3/4 205/3/4
f 203/3/4 204/3/4 206/3/4
f 206/3/4 204/3/4 207/3/4
f 208/3/4 209/3/4 210/3/4
f 210/3/4 209/3/4 211/3/4
f 212/3/4 213/3/4 214/3/4
f 214/3/4 213/3/4 215/3/4
f 216/3/4 217/3/4 218/3/4
f 218/3/4 217/3/4 219/3/4
f 220/4/4 221/4/4 222/4/4
f 222/4/4 221/4/4 223/4/4
f 222/1/4 223/1/4 224/1/4
f 224/1/4 223/1/4 225/1/4
f 226/1/4 227/1/4 228/1/4
f 228/1/4 227/1/4 229/1/4
f 228/4/4 229/4/4 230/4/4
f 230/4/4 229/4/4 231/4/4
f 232/3/4 233/3/4 234/3/4
f 234/3/4 233/3/4 235/3/4
f 232/3/4 234/3/4 236/3/4
f 235/3/4 233/3/4 237/3/4
f 232/3/4 236/3/4 238/3/4
f 236/3/4 237/3/4 238/3/4
f 237/3/4 233/3/4 239/3/4
f 238/3/4 237/3/4 239/3/4
f 240/2/4 241/2/4 242/2/4
f 242/2/4 241/2/4 243/2/4
f 243/3/4 244/3/4 245/3/4
f 245/3/4 244/3/4 246/3/4
f 246/3/4 244/3/4 247/3/4
f 247/3/4 244/3/4 248/3/4
f 248/3/4 244/3/4 250/3/4
f 249/3/4 250/3/4 252/3/4
f 251/3/4 252/3/4 253/3/4
f 250/3/4 244/3/4 254/3/4
f 253/3/4 252/3/4 254/3/4
f 252/3/4 250/3/4 254/3/4
f 255/4/4 256/4/4 257/4/4
f 257/4/4 256/4/4 258/4/4
f 259/2/4 260/2/4 261/2/4
f 261/2/4 260/2/4 262/2/4
f 265/2/5 264/2/5 263/2/5
f 266/2/5 264/2/5 265/2/5
f 267/2/5 264/2/5 266/2/5
f 268/2/5 264/2/5 267/2/5
f 274/3/5 270/3/5 269/3/5
f 275/3/5 270/3/5 274/3/5
f 276/3/5 272/3/5 271/3/5
f 277/3/5 272/3/5 276/3/5
f 279/3/5 274/3/5 273/3/5
f 280/3/5 274/3/5 279/3/5
f 281/3/5 278/3/5 277/3/5
f 282/3/5 278/3/5 281/3/5
f 287/3/5 284/3/5 283/3/5
f 288/3/5 284/3/5 287/3/5
f 290/3/5 286/3/5 285/3/5
f 291/3/5 286/3/5 290/3/5
f 292/3/5 289/3/5 288/3/5
f 293/3/5 289/3/5 292/3/5
f 294/3/5 290/3/5 285/3/5
f 295/3/5 290/3/5 294/3/5
f 299/3/5 297/3/5 296/3/5
f 300/3/5 297/3/5 299/3/5
f 303/3/5 299/3/5 298/3/5
f 303/3/5 301/3/5 300/3/5
f 303/3/5 300/3/5 299/3/5
f 304/3/5 301/3/5 303/3/5
f 306/3/5 303/3/5 302/3/5
f 306/3/5 305/3/5 304/3/5
f 306/3/5 304/3/5 303/3/5
f 307/3/5 305/3/5 306/3/5
f 308/3/5 305/3/5 307/3/5
f 309/3/5 305/3/5 308/3/5
f 310/3/5 308/3/5 307/3/5
f 311/3/5 308/3/5 310/3/5
f 312/3/5 308/3/5 311/3/5
f 313/3/5 308/3/5 312/3/5
f 316/4/5 315/4/5 314/4/5
f 317/4/5 315/4/5 316/4/5
f 318/1/5 317/1/5 316/1/5
f 319/1/5 317/1/5 318/1/5
f 326/4/5 321/4/5 320/4/5
f 327/1/5 322/1/5 321/1/5
f 327/4/5 321/4/5 326/4/5
f 328/1/5 322/1/5 327/1/5
f 329/1/5 324/1/5 323/1/5
f 330/4/5 325/4/5 324/4/5
f 330/1/5 324/1/5 329/1/5
f 331/4/5 325/4/5 330/4/5
f 334/1/5 333/1/5 332/1/5
f 335/1/5 333/1/5 334/1/5
f 336/4/5 335/4/5 334/4/5
f 337/4/5 335/4/5 336/4/5
f 338/2/6 339/2/6 342/2/6
f 340/2/6 341/2/6 343/2/6
f 343/2/6 341/2/6 344/2/6
f 338/2/6 342/2/6 346/2/6
f 344/2/6 345/2/6 346/2/6
f 343/2/6 344/2/6 346/2/6
f 342/2/6 343/2/6 346/2/6
f 346/2/6 345/2/6 347/2/6
f 347/2/6 345/2/6 348/2/6
f 348/2/6 345/2/6 349/2/6
f 338/2/6 346/2/6 350/2/6
f 350/2/6 346/2/6 351/2/6
f 347/2/6 348/2/6 352/2/6
f 352/2/6 348/2/6 353/2/6
f 353/2/6 354/2/6 355/2/6
f 352/2/6 353/2/6 355/2/6
f 351/2/6 352/2/6 355/2/6
f 355/2/6 354/2/6 356/2/6
f 357/3/6 358/3/6 359/3/6
f 359/3/6 358/3/6 360/3/6
f 357/3/6 359/3/6 361/3/6
f 360/3/6 358/3/6 362/3/6
f 357/3/6 361/3/6 363/3/6
f 361/3/6 362/3/6 363/3/6
f 362/3/6 358/3/6 364/3/6
f 363/3/6 362/3/6 364/3/6
f 365/4/6 366/4/6 367/4/6
f 367/4/6 366/4/6 368/4/6
f 367/1/6 368/1/6 369/1/6
f 369/1/6 368/1/6 370/1/6
f 371/4/6 372/4/6 377/4/6
f 372/1/6 373/1/6 378/1/6
f 377/4/6 372/4/6 378/4/6
f 378/1/6 373/1/6 379/1/6
f 374/1/6 375/1/6 380/1/6
f 375/4/6 376/4/6 381/4/6
f 380/1/6 375/1/6 381/1/6
f 381/4/6 376/4/6 382/4/6
f 383/1/6 384/1/6 385/1/6
f 385/1/6 384/1/6 386/1/6
f 385/4/6 386/4/6 387/4/6
f 387/4/6 386/4/6 388/4/6
f 389/3/6 390/3/6 391/3/6
f 391/3/6 390/3/6 392/3/6
f 393/3/6 394/3/6 395/3/6
f 395/3/6 394/3/6 396/3/6
f 393/3/6 395/3/6 397/3/6
f 396/3/6 394/3/6 398/3/6
f 393/3/6 397/3/6 399/3/6
f 397/3/6 398/3/6 399/3/6
f 398/3/6 394/3/6 400/3/6
f 399/3/6 398/3/6 400/3/6
