# 3ds Max Wavefront OBJ Exporter v0.99 - (c)2007 guruware
# 创建的文件:31.12.2020 23:37:03

mtllib leg.mtl

#
# object Crow
#

v  -0.1500 -0.4000 0.1000
v  -0.1500 -0.5000 0.2000
v  -0.1500 -0.4000 0.2000
v  -0.1500 -0.3000 -0.3000
v  -0.1500 -0.3000 0.1000
v  -0.1500 -0.4000 -0.3000
v  -0.1500 -0.4000 -0.4000
v  -0.1500 -0.5000 -0.4000
v  -0.0500 -0.4000 0.3000
v  -0.0500 -0.5000 0.4000
v  -0.0500 -0.4000 0.4000
v  -0.0500 -0.4000 0.2000
v  -0.0500 -0.3000 0.3000
v  -0.0500 -0.5000 0.2000
v  -0.0500 -0.3000 0.1000
v  -0.0500 -0.4000 0.1000
v  -0.0500 -0.2000 -0.1000
v  -0.0500 -0.3000 0.0000
v  -0.0500 -0.2000 0.0000
v  -0.0500 -0.3000 -0.1000
v  -0.0500 0.4000 -0.3000
v  -0.0500 0.4000 -0.1000
v  -0.0500 0.5000 -0.1000
v  -0.0500 0.5000 -0.4000
v  -0.0500 -0.3000 -0.3000
v  -0.0500 -0.4000 -0.3000
v  -0.0500 -0.4000 -0.4000
v  0.0500 -0.4000 0.4000
v  0.0500 -0.5000 0.4000
v  0.0500 -0.4000 0.3000
v  0.0500 -0.5000 0.3000
v  0.0500 -0.3000 0.3000
v  0.0500 -0.3000 0.2000
v  0.0500 -0.4000 0.2000
v  0.0500 -0.2000 0.0000
v  0.0500 -0.3000 0.0000
v  0.0500 -0.2000 -0.1000
v  0.0500 -0.3000 -0.1000
v  0.1500 -0.4000 0.3000
v  0.1500 -0.5000 0.3000
v  0.1500 -0.4000 0.2000
v  0.1500 0.5000 -0.1000
v  0.1500 0.4000 -0.1000
v  0.1500 0.4000 -0.3000
v  0.1500 -0.3000 0.2000
v  0.1500 -0.3000 -0.3000
v  0.1500 0.5000 -0.4000
v  0.1500 -0.5000 -0.4000
# 48 vertices

vn -1.0000 0.0000 -0.0000
vn 1.0000 0.0000 -0.0000
vn 0.0000 1.0000 -0.0000
vn 0.0000 -1.0000 -0.0000
vn 0.0000 0.0000 1.0000
vn 0.0000 0.0000 -1.0000
# 6 vertex normals

vt 0.9160 0.5000 0.0000
# 1 texture coords

o Crow
g Crow
usemtl palette
s 1
f 1/1/1 2/1/1 3/1/1 
f 4/1/1 1/1/1 5/1/1 
f 6/1/1 2/1/1 1/1/1 
f 6/1/1 1/1/1 4/1/1 
f 7/1/1 2/1/1 6/1/1 
f 8/1/1 2/1/1 7/1/1 
f 9/1/1 10/1/1 11/1/1 
f 12/1/1 10/1/1 9/1/1 
f 12/1/1 9/1/1 13/1/1 
f 14/1/1 10/1/1 12/1/1 
f 15/1/1 12/1/1 13/1/1 
f 16/1/1 12/1/1 15/1/1 
f 17/1/1 18/1/1 19/1/1 
f 20/1/1 18/1/1 17/1/1 
f 21/1/1 22/1/1 23/1/1 
f 24/1/1 25/1/1 21/1/1 
f 24/1/1 26/1/1 25/1/1 
f 24/1/1 21/1/1 23/1/1 
f 27/1/1 26/1/1 24/1/1 
f 28/1/2 29/1/2 30/1/2 
f 30/1/2 29/1/2 31/1/2 
f 32/1/2 30/1/2 33/1/2 
f 33/1/2 30/1/2 34/1/2 
f 35/1/2 36/1/2 37/1/2 
f 37/1/2 36/1/2 38/1/2 
f 39/1/2 40/1/2 41/1/2 
f 42/1/2 43/1/2 44/1/2 
f 45/1/2 41/1/2 46/1/2 
f 42/1/2 44/1/2 47/1/2 
f 44/1/2 46/1/2 47/1/2 
f 41/1/2 40/1/2 48/1/2 
f 47/1/2 46/1/2 48/1/2 
f 46/1/2 41/1/2 48/1/2 
f 42/1/3 24/1/3 23/1/3 
f 47/1/3 24/1/3 42/1/3 
f 35/1/3 17/1/3 19/1/3 
f 37/1/3 17/1/3 35/1/3 
f 15/1/3 4/1/3 5/1/3 
f 18/1/3 4/1/3 15/1/3 
f 20/1/3 4/1/3 18/1/3 
f 25/1/3 4/1/3 20/1/3 
f 32/1/3 15/1/3 13/1/3 
f 32/1/3 18/1/3 15/1/3 
f 33/1/3 18/1/3 32/1/3 
f 36/1/3 18/1/3 33/1/3 
f 38/1/3 25/1/3 20/1/3 
f 45/1/3 36/1/3 33/1/3 
f 45/1/3 38/1/3 36/1/3 
f 46/1/3 25/1/3 38/1/3 
f 46/1/3 38/1/3 45/1/3 
f 12/1/3 1/1/3 3/1/3 
f 16/1/3 1/1/3 12/1/3 
f 26/1/3 7/1/3 6/1/3 
f 27/1/3 7/1/3 26/1/3 
f 28/1/3 9/1/3 11/1/3 
f 30/1/3 9/1/3 28/1/3 
f 39/1/3 34/1/3 30/1/3 
f 41/1/3 34/1/3 39/1/3 
f 22/1/4 21/1/4 43/1/4 
f 43/1/4 21/1/4 44/1/4 
f 2/1/4 8/1/4 14/1/4 
f 10/1/4 14/1/4 29/1/4 
f 29/1/4 14/1/4 31/1/4 
f 31/1/4 14/1/4 40/1/4 
f 14/1/4 8/1/4 48/1/4 
f 40/1/4 14/1/4 48/1/4 
f 10/1/5 28/1/5 11/1/5 
f 29/1/5 28/1/5 10/1/5 
f 9/1/5 32/1/5 13/1/5 
f 30/1/5 32/1/5 9/1/5 
f 31/1/5 39/1/5 30/1/5 
f 40/1/5 39/1/5 31/1/5 
f 34/1/5 45/1/5 33/1/5 
f 41/1/5 45/1/5 34/1/5 
f 2/1/5 12/1/5 3/1/5 
f 14/1/5 12/1/5 2/1/5 
f 1/1/5 15/1/5 5/1/5 
f 16/1/5 15/1/5 1/1/5 
f 18/1/5 35/1/5 19/1/5 
f 36/1/5 35/1/5 18/1/5 
f 22/1/5 42/1/5 23/1/5 
f 43/1/5 42/1/5 22/1/5 
f 25/1/5 44/1/5 21/1/5 
f 46/1/5 44/1/5 25/1/5 
f 17/1/6 37/1/6 20/1/6 
f 20/1/6 37/1/6 38/1/6 
f 4/1/6 25/1/6 6/1/6 
f 6/1/6 25/1/6 26/1/6 
f 24/1/6 47/1/6 27/1/6 
f 7/1/6 27/1/6 8/1/6 
f 27/1/6 47/1/6 48/1/6 
f 8/1/6 27/1/6 48/1/6 
# 92 faces

