# 3ds Max Wavefront OBJ Exporter v0.99 - (c)2007 guruware
# 创建的文件:31.12.2020 12:23:02

mtllib left_lower_arm.mtl

#
# object Ida
#

v  -1.0000 0.1000 -0.1500
v  -1.0000 -0.1000 0.1500
v  -1.0000 0.1000 0.1500
v  -1.0000 -0.1000 -0.1500
v  -0.9000 0.1000 0.1500
v  -0.9000 -0.2000 0.2500
v  -0.9000 0.1000 0.2500
v  -0.9000 -0.1000 0.1500
v  -0.9000 0.2000 -0.1500
v  -0.9000 0.2000 0.1500
v  -0.9000 0.1000 -0.1500
v  -0.9000 -0.1000 -0.1500
v  -0.9000 0.1000 -0.2500
v  -0.9000 -0.2000 -0.2500
v  -0.8000 0.2000 0.1500
v  -0.8000 0.1000 0.2500
v  -0.8000 0.2000 0.2500
v  -0.8000 0.1000 0.1500
v  -0.8000 0.3000 -0.0500
v  -0.8000 0.2000 0.0500
v  -0.8000 0.3000 0.0500
v  -0.8000 0.2000 -0.0500
v  -0.8000 -0.2000 -0.0500
v  -0.8000 -0.3000 0.0500
v  -0.8000 -0.2000 0.0500
v  -0.8000 -0.3000 -0.0500
v  -0.8000 0.2000 -0.2500
v  -0.8000 0.1000 -0.1500
v  -0.8000 0.2000 -0.1500
v  -0.8000 0.1000 -0.2500
v  -0.6000 -0.2000 0.0500
v  -0.6000 -0.3000 0.1500
v  -0.6000 -0.2000 0.1500
v  -0.6000 -0.3000 0.0500
v  -0.6000 0.3000 -0.1500
v  -0.6000 0.2000 -0.0500
v  -0.6000 0.3000 -0.0500
v  -0.6000 0.2000 -0.1500
v  -0.6000 -0.2000 -0.1500
v  -0.6000 -0.3000 -0.0500
v  -0.6000 -0.2000 -0.0500
v  -0.6000 -0.3000 -0.1500
v  -0.5000 0.3000 0.0500
v  -0.5000 0.2000 0.1500
v  -0.5000 0.3000 0.1500
v  -0.5000 0.2000 0.0500
v  -0.8000 0.0000 0.1500
v  -0.8000 -0.1000 0.1500
v  -0.8000 0.0000 0.0500
v  -0.8000 0.1000 0.0500
v  -0.8000 0.1000 -0.0500
v  -0.8000 0.0000 -0.0500
v  -0.8000 0.0000 -0.1500
v  -0.8000 -0.1000 -0.1500
v  -0.7000 0.1000 0.1500
v  -0.7000 0.0000 0.1500
v  -0.7000 0.1000 0.0500
v  -0.7000 0.0000 0.0500
v  -0.7000 0.1000 -0.0500
v  -0.7000 0.0000 -0.0500
v  -0.7000 0.1000 -0.1500
v  -0.7000 0.0000 -0.1500
v  -0.5000 -0.1000 0.0500
v  -0.5000 -0.2000 0.0500
v  -0.5000 -0.1000 -0.0500
v  -0.5000 -0.2000 -0.0500
v  -0.4000 0.2000 0.0500
v  -0.4000 0.1000 0.0500
v  -0.4000 0.2000 -0.0500
v  -0.4000 0.1000 -0.0500
v  1.0000 0.2000 0.2500
v  1.0000 -0.2000 0.2500
v  1.0000 0.2000 0.1500
v  1.0000 0.1000 0.1500
v  1.0000 -0.1000 0.1500
v  1.0000 -0.2000 0.1500
v  1.0000 0.3000 0.1500
v  1.0000 0.2000 0.0500
v  1.0000 0.1000 0.0500
v  1.0000 -0.3000 0.1500
v  1.0000 -0.1000 0.0500
v  1.0000 -0.2000 0.0500
v  1.0000 0.2000 -0.0500
v  1.0000 -0.2000 -0.0500
v  1.0000 0.1000 -0.0500
v  1.0000 0.3000 -0.1500
v  1.0000 0.2000 -0.1500
v  1.0000 0.1000 -0.1500
v  1.0000 -0.1000 -0.0500
v  1.0000 -0.1000 -0.1500
v  1.0000 -0.2000 -0.1500
v  1.0000 -0.3000 -0.1500
v  1.0000 0.2000 -0.2500
v  1.0000 -0.2000 -0.2500
# 94 vertices

vn -1.0000 0.0000 -0.0000
vn 1.0000 0.0000 -0.0000
vn 0.0000 1.0000 -0.0000
vn 0.0000 -1.0000 -0.0000
vn 0.0000 0.0000 1.0000
vn 0.0000 0.0000 -1.0000
# 6 vertex normals

vt 0.9473 0.5000 0.0000
# 1 texture coords

o Ida
g Ida
usemtl palette
s 1
f 1/1/1 2/1/1 3/1/1 
f 4/1/1 2/1/1 1/1/1 
f 5/1/1 6/1/1 7/1/1 
f 8/1/1 6/1/1 5/1/1 
f 9/1/1 5/1/1 10/1/1 
f 11/1/1 5/1/1 9/1/1 
f 12/1/1 6/1/1 8/1/1 
f 13/1/1 12/1/1 11/1/1 
f 14/1/1 6/1/1 12/1/1 
f 14/1/1 12/1/1 13/1/1 
f 15/1/1 16/1/1 17/1/1 
f 18/1/1 16/1/1 15/1/1 
f 19/1/1 20/1/1 21/1/1 
f 22/1/1 20/1/1 19/1/1 
f 23/1/1 24/1/1 25/1/1 
f 26/1/1 24/1/1 23/1/1 
f 27/1/1 28/1/1 29/1/1 
f 30/1/1 28/1/1 27/1/1 
f 31/1/1 32/1/1 33/1/1 
f 34/1/1 32/1/1 31/1/1 
f 35/1/1 36/1/1 37/1/1 
f 38/1/1 36/1/1 35/1/1 
f 39/1/1 40/1/1 41/1/1 
f 42/1/1 40/1/1 39/1/1 
f 43/1/1 44/1/1 45/1/1 
f 46/1/1 44/1/1 43/1/1 
f 47/1/2 48/1/2 49/1/2 
f 50/1/2 49/1/2 51/1/2 
f 49/1/2 48/1/2 52/1/2 
f 51/1/2 49/1/2 52/1/2 
f 52/1/2 48/1/2 53/1/2 
f 53/1/2 48/1/2 54/1/2 
f 55/1/2 56/1/2 57/1/2 
f 57/1/2 56/1/2 58/1/2 
f 59/1/2 60/1/2 61/1/2 
f 61/1/2 60/1/2 62/1/2 
f 63/1/2 64/1/2 65/1/2 
f 65/1/2 64/1/2 66/1/2 
f 67/1/2 68/1/2 69/1/2 
f 69/1/2 68/1/2 70/1/2 
f 71/1/2 72/1/2 73/1/2 
f 73/1/2 72/1/2 74/1/2 
f 74/1/2 72/1/2 75/1/2 
f 75/1/2 72/1/2 76/1/2 
f 77/1/2 73/1/2 78/1/2 
f 73/1/2 74/1/2 78/1/2 
f 78/1/2 74/1/2 79/1/2 
f 76/1/2 80/1/2 81/1/2 
f 75/1/2 76/1/2 81/1/2 
f 81/1/2 80/1/2 82/1/2 
f 77/1/2 78/1/2 83/1/2 
f 82/1/2 80/1/2 84/1/2 
f 83/1/2 85/1/2 86/1/2 
f 77/1/2 83/1/2 86/1/2 
f 86/1/2 85/1/2 87/1/2 
f 87/1/2 85/1/2 88/1/2 
f 89/1/2 84/1/2 90/1/2 
f 84/1/2 80/1/2 91/1/2 
f 90/1/2 84/1/2 91/1/2 
f 91/1/2 80/1/2 92/1/2 
f 87/1/2 88/1/2 93/1/2 
f 88/1/2 90/1/2 93/1/2 
f 90/1/2 91/1/2 93/1/2 
f 93/1/2 91/1/2 94/1/2 
f 37/1/3 19/1/3 21/1/3 
f 43/1/3 37/1/3 21/1/3 
f 43/1/3 35/1/3 37/1/3 
f 77/1/3 43/1/3 45/1/3 
f 86/1/3 35/1/3 43/1/3 
f 86/1/3 43/1/3 77/1/3 
f 15/1/3 9/1/3 10/1/3 
f 20/1/3 9/1/3 15/1/3 
f 22/1/3 9/1/3 20/1/3 
f 29/1/3 9/1/3 22/1/3 
f 36/1/3 27/1/3 29/1/3 
f 36/1/3 29/1/3 22/1/3 
f 38/1/3 27/1/3 36/1/3 
f 44/1/3 15/1/3 17/1/3 
f 44/1/3 20/1/3 15/1/3 
f 46/1/3 20/1/3 44/1/3 
f 71/1/3 44/1/3 17/1/3 
f 73/1/3 44/1/3 71/1/3 
f 87/1/3 27/1/3 38/1/3 
f 93/1/3 27/1/3 87/1/3 
f 5/1/3 1/1/3 3/1/3 
f 11/1/3 1/1/3 5/1/3 
f 16/1/3 5/1/3 7/1/3 
f 18/1/3 5/1/3 16/1/3 
f 28/1/3 13/1/3 11/1/3 
f 30/1/3 13/1/3 28/1/3 
f 63/1/3 54/1/3 48/1/3 
f 65/1/3 54/1/3 63/1/3 
f 75/1/3 63/1/3 48/1/3 
f 81/1/3 63/1/3 75/1/3 
f 89/1/3 54/1/3 65/1/3 
f 90/1/3 54/1/3 89/1/3 
f 82/1/3 66/1/3 64/1/3 
f 84/1/3 66/1/3 82/1/3 
f 67/1/4 69/1/4 78/1/4 
f 78/1/4 69/1/4 83/1/4 
f 50/1/4 51/1/4 57/1/4 
f 57/1/4 51/1/4 59/1/4 
f 55/1/4 57/1/4 68/1/4 
f 59/1/4 61/1/4 68/1/4 
f 57/1/4 59/1/4 68/1/4 
f 68/1/4 61/1/4 70/1/4 
f 55/1/4 68/1/4 74/1/4 
f 74/1/4 68/1/4 79/1/4 
f 70/1/4 61/1/4 85/1/4 
f 85/1/4 61/1/4 88/1/4 
f 47/1/4 49/1/4 56/1/4 
f 56/1/4 49/1/4 58/1/4 
f 52/1/4 53/1/4 60/1/4 
f 60/1/4 53/1/4 62/1/4 
f 2/1/4 4/1/4 8/1/4 
f 8/1/4 4/1/4 12/1/4 
f 6/1/4 14/1/4 25/1/4 
f 25/1/4 14/1/4 23/1/4 
f 6/1/4 25/1/4 33/1/4 
f 33/1/4 25/1/4 31/1/4 
f 23/1/4 14/1/4 41/1/4 
f 41/1/4 14/1/4 39/1/4 
f 6/1/4 33/1/4 72/1/4 
f 72/1/4 33/1/4 76/1/4 
f 39/1/4 14/1/4 91/1/4 
f 91/1/4 14/1/4 94/1/4 
f 24/1/4 26/1/4 34/1/4 
f 34/1/4 26/1/4 40/1/4 
f 32/1/4 34/1/4 80/1/4 
f 40/1/4 42/1/4 80/1/4 
f 34/1/4 40/1/4 80/1/4 
f 80/1/4 42/1/4 92/1/4 
f 16/1/5 71/1/5 17/1/5 
f 6/1/5 16/1/5 7/1/5 
f 72/1/5 71/1/5 16/1/5 
f 72/1/5 16/1/5 6/1/5 
f 44/1/5 77/1/5 45/1/5 
f 73/1/5 77/1/5 44/1/5 
f 5/1/5 15/1/5 10/1/5 
f 18/1/5 15/1/5 5/1/5 
f 2/1/5 5/1/5 3/1/5 
f 8/1/5 5/1/5 2/1/5 
f 32/1/5 76/1/5 33/1/5 
f 80/1/5 76/1/5 32/1/5 
f 20/1/5 43/1/5 21/1/5 
f 46/1/5 43/1/5 20/1/5 
f 24/1/5 31/1/5 25/1/5 
f 34/1/5 31/1/5 24/1/5 
f 70/1/5 83/1/5 69/1/5 
f 85/1/5 83/1/5 70/1/5 
f 52/1/5 59/1/5 51/1/5 
f 60/1/5 59/1/5 52/1/5 
f 66/1/5 89/1/5 65/1/5 
f 84/1/5 89/1/5 66/1/5 
f 62/1/5 88/1/5 61/1/5 
f 54/1/5 62/1/5 53/1/5 
f 90/1/5 88/1/5 62/1/5 
f 90/1/5 62/1/5 54/1/5 
f 55/1/6 74/1/6 56/1/6 
f 47/1/6 56/1/6 48/1/6 
f 56/1/6 74/1/6 75/1/6 
f 48/1/6 56/1/6 75/1/6 
f 67/1/6 78/1/6 68/1/6 
f 68/1/6 78/1/6 79/1/6 
f 50/1/6 57/1/6 49/1/6 
f 49/1/6 57/1/6 58/1/6 
f 63/1/6 81/1/6 64/1/6 
f 64/1/6 81/1/6 82/1/6 
f 19/1/6 37/1/6 22/1/6 
f 22/1/6 37/1/6 36/1/6 
f 23/1/6 41/1/6 26/1/6 
f 26/1/6 41/1/6 40/1/6 
f 35/1/6 86/1/6 38/1/6 
f 38/1/6 86/1/6 87/1/6 
f 9/1/6 29/1/6 11/1/6 
f 11/1/6 29/1/6 28/1/6 
f 1/1/6 11/1/6 4/1/6 
f 4/1/6 11/1/6 12/1/6 
f 39/1/6 91/1/6 42/1/6 
f 42/1/6 91/1/6 92/1/6 
f 27/1/6 93/1/6 30/1/6 
f 13/1/6 30/1/6 14/1/6 
f 30/1/6 93/1/6 94/1/6 
f 14/1/6 30/1/6 94/1/6 
# 184 faces

